G75*
%MOIN*%
%OFA0B0*%
%FSLAX25Y25*%
%IPPOS*%
%LPD*%
%AMOC8*
5,1,8,0,0,1.08239X$1,22.5*
%
%ADD10C,0.00000*%
%ADD11C,0.00001*%
%ADD12C,0.00500*%
D10*
X0003333Y0010600D02*
X0003333Y0265600D01*
X0008396Y0265600D02*
X0008398Y0265725D01*
X0008404Y0265850D01*
X0008414Y0265974D01*
X0008428Y0266098D01*
X0008445Y0266222D01*
X0008467Y0266345D01*
X0008493Y0266467D01*
X0008522Y0266589D01*
X0008555Y0266709D01*
X0008593Y0266828D01*
X0008633Y0266947D01*
X0008678Y0267063D01*
X0008726Y0267178D01*
X0008778Y0267292D01*
X0008834Y0267404D01*
X0008893Y0267514D01*
X0008955Y0267622D01*
X0009021Y0267729D01*
X0009090Y0267833D01*
X0009163Y0267934D01*
X0009238Y0268034D01*
X0009317Y0268131D01*
X0009399Y0268225D01*
X0009484Y0268317D01*
X0009571Y0268406D01*
X0009662Y0268492D01*
X0009755Y0268575D01*
X0009851Y0268656D01*
X0009949Y0268733D01*
X0010049Y0268807D01*
X0010152Y0268878D01*
X0010257Y0268945D01*
X0010365Y0269010D01*
X0010474Y0269070D01*
X0010585Y0269128D01*
X0010698Y0269181D01*
X0010812Y0269231D01*
X0010928Y0269278D01*
X0011045Y0269320D01*
X0011164Y0269359D01*
X0011284Y0269395D01*
X0011405Y0269426D01*
X0011527Y0269454D01*
X0011649Y0269477D01*
X0011773Y0269497D01*
X0011897Y0269513D01*
X0012021Y0269525D01*
X0012146Y0269533D01*
X0012271Y0269537D01*
X0012395Y0269537D01*
X0012520Y0269533D01*
X0012645Y0269525D01*
X0012769Y0269513D01*
X0012893Y0269497D01*
X0013017Y0269477D01*
X0013139Y0269454D01*
X0013261Y0269426D01*
X0013382Y0269395D01*
X0013502Y0269359D01*
X0013621Y0269320D01*
X0013738Y0269278D01*
X0013854Y0269231D01*
X0013968Y0269181D01*
X0014081Y0269128D01*
X0014192Y0269070D01*
X0014302Y0269010D01*
X0014409Y0268945D01*
X0014514Y0268878D01*
X0014617Y0268807D01*
X0014717Y0268733D01*
X0014815Y0268656D01*
X0014911Y0268575D01*
X0015004Y0268492D01*
X0015095Y0268406D01*
X0015182Y0268317D01*
X0015267Y0268225D01*
X0015349Y0268131D01*
X0015428Y0268034D01*
X0015503Y0267934D01*
X0015576Y0267833D01*
X0015645Y0267729D01*
X0015711Y0267622D01*
X0015773Y0267514D01*
X0015832Y0267404D01*
X0015888Y0267292D01*
X0015940Y0267178D01*
X0015988Y0267063D01*
X0016033Y0266947D01*
X0016073Y0266828D01*
X0016111Y0266709D01*
X0016144Y0266589D01*
X0016173Y0266467D01*
X0016199Y0266345D01*
X0016221Y0266222D01*
X0016238Y0266098D01*
X0016252Y0265974D01*
X0016262Y0265850D01*
X0016268Y0265725D01*
X0016270Y0265600D01*
X0016268Y0265475D01*
X0016262Y0265350D01*
X0016252Y0265226D01*
X0016238Y0265102D01*
X0016221Y0264978D01*
X0016199Y0264855D01*
X0016173Y0264733D01*
X0016144Y0264611D01*
X0016111Y0264491D01*
X0016073Y0264372D01*
X0016033Y0264253D01*
X0015988Y0264137D01*
X0015940Y0264022D01*
X0015888Y0263908D01*
X0015832Y0263796D01*
X0015773Y0263686D01*
X0015711Y0263578D01*
X0015645Y0263471D01*
X0015576Y0263367D01*
X0015503Y0263266D01*
X0015428Y0263166D01*
X0015349Y0263069D01*
X0015267Y0262975D01*
X0015182Y0262883D01*
X0015095Y0262794D01*
X0015004Y0262708D01*
X0014911Y0262625D01*
X0014815Y0262544D01*
X0014717Y0262467D01*
X0014617Y0262393D01*
X0014514Y0262322D01*
X0014409Y0262255D01*
X0014301Y0262190D01*
X0014192Y0262130D01*
X0014081Y0262072D01*
X0013968Y0262019D01*
X0013854Y0261969D01*
X0013738Y0261922D01*
X0013621Y0261880D01*
X0013502Y0261841D01*
X0013382Y0261805D01*
X0013261Y0261774D01*
X0013139Y0261746D01*
X0013017Y0261723D01*
X0012893Y0261703D01*
X0012769Y0261687D01*
X0012645Y0261675D01*
X0012520Y0261667D01*
X0012395Y0261663D01*
X0012271Y0261663D01*
X0012146Y0261667D01*
X0012021Y0261675D01*
X0011897Y0261687D01*
X0011773Y0261703D01*
X0011649Y0261723D01*
X0011527Y0261746D01*
X0011405Y0261774D01*
X0011284Y0261805D01*
X0011164Y0261841D01*
X0011045Y0261880D01*
X0010928Y0261922D01*
X0010812Y0261969D01*
X0010698Y0262019D01*
X0010585Y0262072D01*
X0010474Y0262130D01*
X0010364Y0262190D01*
X0010257Y0262255D01*
X0010152Y0262322D01*
X0010049Y0262393D01*
X0009949Y0262467D01*
X0009851Y0262544D01*
X0009755Y0262625D01*
X0009662Y0262708D01*
X0009571Y0262794D01*
X0009484Y0262883D01*
X0009399Y0262975D01*
X0009317Y0263069D01*
X0009238Y0263166D01*
X0009163Y0263266D01*
X0009090Y0263367D01*
X0009021Y0263471D01*
X0008955Y0263578D01*
X0008893Y0263686D01*
X0008834Y0263796D01*
X0008778Y0263908D01*
X0008726Y0264022D01*
X0008678Y0264137D01*
X0008633Y0264253D01*
X0008593Y0264372D01*
X0008555Y0264491D01*
X0008522Y0264611D01*
X0008493Y0264733D01*
X0008467Y0264855D01*
X0008445Y0264978D01*
X0008428Y0265102D01*
X0008414Y0265226D01*
X0008404Y0265350D01*
X0008398Y0265475D01*
X0008396Y0265600D01*
X0012333Y0274600D02*
X0192333Y0274600D01*
X0188396Y0265600D02*
X0188398Y0265725D01*
X0188404Y0265850D01*
X0188414Y0265974D01*
X0188428Y0266098D01*
X0188445Y0266222D01*
X0188467Y0266345D01*
X0188493Y0266467D01*
X0188522Y0266589D01*
X0188555Y0266709D01*
X0188593Y0266828D01*
X0188633Y0266947D01*
X0188678Y0267063D01*
X0188726Y0267178D01*
X0188778Y0267292D01*
X0188834Y0267404D01*
X0188893Y0267514D01*
X0188955Y0267622D01*
X0189021Y0267729D01*
X0189090Y0267833D01*
X0189163Y0267934D01*
X0189238Y0268034D01*
X0189317Y0268131D01*
X0189399Y0268225D01*
X0189484Y0268317D01*
X0189571Y0268406D01*
X0189662Y0268492D01*
X0189755Y0268575D01*
X0189851Y0268656D01*
X0189949Y0268733D01*
X0190049Y0268807D01*
X0190152Y0268878D01*
X0190257Y0268945D01*
X0190365Y0269010D01*
X0190474Y0269070D01*
X0190585Y0269128D01*
X0190698Y0269181D01*
X0190812Y0269231D01*
X0190928Y0269278D01*
X0191045Y0269320D01*
X0191164Y0269359D01*
X0191284Y0269395D01*
X0191405Y0269426D01*
X0191527Y0269454D01*
X0191649Y0269477D01*
X0191773Y0269497D01*
X0191897Y0269513D01*
X0192021Y0269525D01*
X0192146Y0269533D01*
X0192271Y0269537D01*
X0192395Y0269537D01*
X0192520Y0269533D01*
X0192645Y0269525D01*
X0192769Y0269513D01*
X0192893Y0269497D01*
X0193017Y0269477D01*
X0193139Y0269454D01*
X0193261Y0269426D01*
X0193382Y0269395D01*
X0193502Y0269359D01*
X0193621Y0269320D01*
X0193738Y0269278D01*
X0193854Y0269231D01*
X0193968Y0269181D01*
X0194081Y0269128D01*
X0194192Y0269070D01*
X0194302Y0269010D01*
X0194409Y0268945D01*
X0194514Y0268878D01*
X0194617Y0268807D01*
X0194717Y0268733D01*
X0194815Y0268656D01*
X0194911Y0268575D01*
X0195004Y0268492D01*
X0195095Y0268406D01*
X0195182Y0268317D01*
X0195267Y0268225D01*
X0195349Y0268131D01*
X0195428Y0268034D01*
X0195503Y0267934D01*
X0195576Y0267833D01*
X0195645Y0267729D01*
X0195711Y0267622D01*
X0195773Y0267514D01*
X0195832Y0267404D01*
X0195888Y0267292D01*
X0195940Y0267178D01*
X0195988Y0267063D01*
X0196033Y0266947D01*
X0196073Y0266828D01*
X0196111Y0266709D01*
X0196144Y0266589D01*
X0196173Y0266467D01*
X0196199Y0266345D01*
X0196221Y0266222D01*
X0196238Y0266098D01*
X0196252Y0265974D01*
X0196262Y0265850D01*
X0196268Y0265725D01*
X0196270Y0265600D01*
X0196268Y0265475D01*
X0196262Y0265350D01*
X0196252Y0265226D01*
X0196238Y0265102D01*
X0196221Y0264978D01*
X0196199Y0264855D01*
X0196173Y0264733D01*
X0196144Y0264611D01*
X0196111Y0264491D01*
X0196073Y0264372D01*
X0196033Y0264253D01*
X0195988Y0264137D01*
X0195940Y0264022D01*
X0195888Y0263908D01*
X0195832Y0263796D01*
X0195773Y0263686D01*
X0195711Y0263578D01*
X0195645Y0263471D01*
X0195576Y0263367D01*
X0195503Y0263266D01*
X0195428Y0263166D01*
X0195349Y0263069D01*
X0195267Y0262975D01*
X0195182Y0262883D01*
X0195095Y0262794D01*
X0195004Y0262708D01*
X0194911Y0262625D01*
X0194815Y0262544D01*
X0194717Y0262467D01*
X0194617Y0262393D01*
X0194514Y0262322D01*
X0194409Y0262255D01*
X0194301Y0262190D01*
X0194192Y0262130D01*
X0194081Y0262072D01*
X0193968Y0262019D01*
X0193854Y0261969D01*
X0193738Y0261922D01*
X0193621Y0261880D01*
X0193502Y0261841D01*
X0193382Y0261805D01*
X0193261Y0261774D01*
X0193139Y0261746D01*
X0193017Y0261723D01*
X0192893Y0261703D01*
X0192769Y0261687D01*
X0192645Y0261675D01*
X0192520Y0261667D01*
X0192395Y0261663D01*
X0192271Y0261663D01*
X0192146Y0261667D01*
X0192021Y0261675D01*
X0191897Y0261687D01*
X0191773Y0261703D01*
X0191649Y0261723D01*
X0191527Y0261746D01*
X0191405Y0261774D01*
X0191284Y0261805D01*
X0191164Y0261841D01*
X0191045Y0261880D01*
X0190928Y0261922D01*
X0190812Y0261969D01*
X0190698Y0262019D01*
X0190585Y0262072D01*
X0190474Y0262130D01*
X0190364Y0262190D01*
X0190257Y0262255D01*
X0190152Y0262322D01*
X0190049Y0262393D01*
X0189949Y0262467D01*
X0189851Y0262544D01*
X0189755Y0262625D01*
X0189662Y0262708D01*
X0189571Y0262794D01*
X0189484Y0262883D01*
X0189399Y0262975D01*
X0189317Y0263069D01*
X0189238Y0263166D01*
X0189163Y0263266D01*
X0189090Y0263367D01*
X0189021Y0263471D01*
X0188955Y0263578D01*
X0188893Y0263686D01*
X0188834Y0263796D01*
X0188778Y0263908D01*
X0188726Y0264022D01*
X0188678Y0264137D01*
X0188633Y0264253D01*
X0188593Y0264372D01*
X0188555Y0264491D01*
X0188522Y0264611D01*
X0188493Y0264733D01*
X0188467Y0264855D01*
X0188445Y0264978D01*
X0188428Y0265102D01*
X0188414Y0265226D01*
X0188404Y0265350D01*
X0188398Y0265475D01*
X0188396Y0265600D01*
X0201333Y0265600D02*
X0201333Y0010600D01*
X0188396Y0010600D02*
X0188398Y0010725D01*
X0188404Y0010850D01*
X0188414Y0010974D01*
X0188428Y0011098D01*
X0188445Y0011222D01*
X0188467Y0011345D01*
X0188493Y0011467D01*
X0188522Y0011589D01*
X0188555Y0011709D01*
X0188593Y0011828D01*
X0188633Y0011947D01*
X0188678Y0012063D01*
X0188726Y0012178D01*
X0188778Y0012292D01*
X0188834Y0012404D01*
X0188893Y0012514D01*
X0188955Y0012622D01*
X0189021Y0012729D01*
X0189090Y0012833D01*
X0189163Y0012934D01*
X0189238Y0013034D01*
X0189317Y0013131D01*
X0189399Y0013225D01*
X0189484Y0013317D01*
X0189571Y0013406D01*
X0189662Y0013492D01*
X0189755Y0013575D01*
X0189851Y0013656D01*
X0189949Y0013733D01*
X0190049Y0013807D01*
X0190152Y0013878D01*
X0190257Y0013945D01*
X0190365Y0014010D01*
X0190474Y0014070D01*
X0190585Y0014128D01*
X0190698Y0014181D01*
X0190812Y0014231D01*
X0190928Y0014278D01*
X0191045Y0014320D01*
X0191164Y0014359D01*
X0191284Y0014395D01*
X0191405Y0014426D01*
X0191527Y0014454D01*
X0191649Y0014477D01*
X0191773Y0014497D01*
X0191897Y0014513D01*
X0192021Y0014525D01*
X0192146Y0014533D01*
X0192271Y0014537D01*
X0192395Y0014537D01*
X0192520Y0014533D01*
X0192645Y0014525D01*
X0192769Y0014513D01*
X0192893Y0014497D01*
X0193017Y0014477D01*
X0193139Y0014454D01*
X0193261Y0014426D01*
X0193382Y0014395D01*
X0193502Y0014359D01*
X0193621Y0014320D01*
X0193738Y0014278D01*
X0193854Y0014231D01*
X0193968Y0014181D01*
X0194081Y0014128D01*
X0194192Y0014070D01*
X0194302Y0014010D01*
X0194409Y0013945D01*
X0194514Y0013878D01*
X0194617Y0013807D01*
X0194717Y0013733D01*
X0194815Y0013656D01*
X0194911Y0013575D01*
X0195004Y0013492D01*
X0195095Y0013406D01*
X0195182Y0013317D01*
X0195267Y0013225D01*
X0195349Y0013131D01*
X0195428Y0013034D01*
X0195503Y0012934D01*
X0195576Y0012833D01*
X0195645Y0012729D01*
X0195711Y0012622D01*
X0195773Y0012514D01*
X0195832Y0012404D01*
X0195888Y0012292D01*
X0195940Y0012178D01*
X0195988Y0012063D01*
X0196033Y0011947D01*
X0196073Y0011828D01*
X0196111Y0011709D01*
X0196144Y0011589D01*
X0196173Y0011467D01*
X0196199Y0011345D01*
X0196221Y0011222D01*
X0196238Y0011098D01*
X0196252Y0010974D01*
X0196262Y0010850D01*
X0196268Y0010725D01*
X0196270Y0010600D01*
X0196268Y0010475D01*
X0196262Y0010350D01*
X0196252Y0010226D01*
X0196238Y0010102D01*
X0196221Y0009978D01*
X0196199Y0009855D01*
X0196173Y0009733D01*
X0196144Y0009611D01*
X0196111Y0009491D01*
X0196073Y0009372D01*
X0196033Y0009253D01*
X0195988Y0009137D01*
X0195940Y0009022D01*
X0195888Y0008908D01*
X0195832Y0008796D01*
X0195773Y0008686D01*
X0195711Y0008578D01*
X0195645Y0008471D01*
X0195576Y0008367D01*
X0195503Y0008266D01*
X0195428Y0008166D01*
X0195349Y0008069D01*
X0195267Y0007975D01*
X0195182Y0007883D01*
X0195095Y0007794D01*
X0195004Y0007708D01*
X0194911Y0007625D01*
X0194815Y0007544D01*
X0194717Y0007467D01*
X0194617Y0007393D01*
X0194514Y0007322D01*
X0194409Y0007255D01*
X0194301Y0007190D01*
X0194192Y0007130D01*
X0194081Y0007072D01*
X0193968Y0007019D01*
X0193854Y0006969D01*
X0193738Y0006922D01*
X0193621Y0006880D01*
X0193502Y0006841D01*
X0193382Y0006805D01*
X0193261Y0006774D01*
X0193139Y0006746D01*
X0193017Y0006723D01*
X0192893Y0006703D01*
X0192769Y0006687D01*
X0192645Y0006675D01*
X0192520Y0006667D01*
X0192395Y0006663D01*
X0192271Y0006663D01*
X0192146Y0006667D01*
X0192021Y0006675D01*
X0191897Y0006687D01*
X0191773Y0006703D01*
X0191649Y0006723D01*
X0191527Y0006746D01*
X0191405Y0006774D01*
X0191284Y0006805D01*
X0191164Y0006841D01*
X0191045Y0006880D01*
X0190928Y0006922D01*
X0190812Y0006969D01*
X0190698Y0007019D01*
X0190585Y0007072D01*
X0190474Y0007130D01*
X0190364Y0007190D01*
X0190257Y0007255D01*
X0190152Y0007322D01*
X0190049Y0007393D01*
X0189949Y0007467D01*
X0189851Y0007544D01*
X0189755Y0007625D01*
X0189662Y0007708D01*
X0189571Y0007794D01*
X0189484Y0007883D01*
X0189399Y0007975D01*
X0189317Y0008069D01*
X0189238Y0008166D01*
X0189163Y0008266D01*
X0189090Y0008367D01*
X0189021Y0008471D01*
X0188955Y0008578D01*
X0188893Y0008686D01*
X0188834Y0008796D01*
X0188778Y0008908D01*
X0188726Y0009022D01*
X0188678Y0009137D01*
X0188633Y0009253D01*
X0188593Y0009372D01*
X0188555Y0009491D01*
X0188522Y0009611D01*
X0188493Y0009733D01*
X0188467Y0009855D01*
X0188445Y0009978D01*
X0188428Y0010102D01*
X0188414Y0010226D01*
X0188404Y0010350D01*
X0188398Y0010475D01*
X0188396Y0010600D01*
X0192333Y0001600D02*
X0012333Y0001600D01*
X0008396Y0010600D02*
X0008398Y0010725D01*
X0008404Y0010850D01*
X0008414Y0010974D01*
X0008428Y0011098D01*
X0008445Y0011222D01*
X0008467Y0011345D01*
X0008493Y0011467D01*
X0008522Y0011589D01*
X0008555Y0011709D01*
X0008593Y0011828D01*
X0008633Y0011947D01*
X0008678Y0012063D01*
X0008726Y0012178D01*
X0008778Y0012292D01*
X0008834Y0012404D01*
X0008893Y0012514D01*
X0008955Y0012622D01*
X0009021Y0012729D01*
X0009090Y0012833D01*
X0009163Y0012934D01*
X0009238Y0013034D01*
X0009317Y0013131D01*
X0009399Y0013225D01*
X0009484Y0013317D01*
X0009571Y0013406D01*
X0009662Y0013492D01*
X0009755Y0013575D01*
X0009851Y0013656D01*
X0009949Y0013733D01*
X0010049Y0013807D01*
X0010152Y0013878D01*
X0010257Y0013945D01*
X0010365Y0014010D01*
X0010474Y0014070D01*
X0010585Y0014128D01*
X0010698Y0014181D01*
X0010812Y0014231D01*
X0010928Y0014278D01*
X0011045Y0014320D01*
X0011164Y0014359D01*
X0011284Y0014395D01*
X0011405Y0014426D01*
X0011527Y0014454D01*
X0011649Y0014477D01*
X0011773Y0014497D01*
X0011897Y0014513D01*
X0012021Y0014525D01*
X0012146Y0014533D01*
X0012271Y0014537D01*
X0012395Y0014537D01*
X0012520Y0014533D01*
X0012645Y0014525D01*
X0012769Y0014513D01*
X0012893Y0014497D01*
X0013017Y0014477D01*
X0013139Y0014454D01*
X0013261Y0014426D01*
X0013382Y0014395D01*
X0013502Y0014359D01*
X0013621Y0014320D01*
X0013738Y0014278D01*
X0013854Y0014231D01*
X0013968Y0014181D01*
X0014081Y0014128D01*
X0014192Y0014070D01*
X0014302Y0014010D01*
X0014409Y0013945D01*
X0014514Y0013878D01*
X0014617Y0013807D01*
X0014717Y0013733D01*
X0014815Y0013656D01*
X0014911Y0013575D01*
X0015004Y0013492D01*
X0015095Y0013406D01*
X0015182Y0013317D01*
X0015267Y0013225D01*
X0015349Y0013131D01*
X0015428Y0013034D01*
X0015503Y0012934D01*
X0015576Y0012833D01*
X0015645Y0012729D01*
X0015711Y0012622D01*
X0015773Y0012514D01*
X0015832Y0012404D01*
X0015888Y0012292D01*
X0015940Y0012178D01*
X0015988Y0012063D01*
X0016033Y0011947D01*
X0016073Y0011828D01*
X0016111Y0011709D01*
X0016144Y0011589D01*
X0016173Y0011467D01*
X0016199Y0011345D01*
X0016221Y0011222D01*
X0016238Y0011098D01*
X0016252Y0010974D01*
X0016262Y0010850D01*
X0016268Y0010725D01*
X0016270Y0010600D01*
X0016268Y0010475D01*
X0016262Y0010350D01*
X0016252Y0010226D01*
X0016238Y0010102D01*
X0016221Y0009978D01*
X0016199Y0009855D01*
X0016173Y0009733D01*
X0016144Y0009611D01*
X0016111Y0009491D01*
X0016073Y0009372D01*
X0016033Y0009253D01*
X0015988Y0009137D01*
X0015940Y0009022D01*
X0015888Y0008908D01*
X0015832Y0008796D01*
X0015773Y0008686D01*
X0015711Y0008578D01*
X0015645Y0008471D01*
X0015576Y0008367D01*
X0015503Y0008266D01*
X0015428Y0008166D01*
X0015349Y0008069D01*
X0015267Y0007975D01*
X0015182Y0007883D01*
X0015095Y0007794D01*
X0015004Y0007708D01*
X0014911Y0007625D01*
X0014815Y0007544D01*
X0014717Y0007467D01*
X0014617Y0007393D01*
X0014514Y0007322D01*
X0014409Y0007255D01*
X0014301Y0007190D01*
X0014192Y0007130D01*
X0014081Y0007072D01*
X0013968Y0007019D01*
X0013854Y0006969D01*
X0013738Y0006922D01*
X0013621Y0006880D01*
X0013502Y0006841D01*
X0013382Y0006805D01*
X0013261Y0006774D01*
X0013139Y0006746D01*
X0013017Y0006723D01*
X0012893Y0006703D01*
X0012769Y0006687D01*
X0012645Y0006675D01*
X0012520Y0006667D01*
X0012395Y0006663D01*
X0012271Y0006663D01*
X0012146Y0006667D01*
X0012021Y0006675D01*
X0011897Y0006687D01*
X0011773Y0006703D01*
X0011649Y0006723D01*
X0011527Y0006746D01*
X0011405Y0006774D01*
X0011284Y0006805D01*
X0011164Y0006841D01*
X0011045Y0006880D01*
X0010928Y0006922D01*
X0010812Y0006969D01*
X0010698Y0007019D01*
X0010585Y0007072D01*
X0010474Y0007130D01*
X0010364Y0007190D01*
X0010257Y0007255D01*
X0010152Y0007322D01*
X0010049Y0007393D01*
X0009949Y0007467D01*
X0009851Y0007544D01*
X0009755Y0007625D01*
X0009662Y0007708D01*
X0009571Y0007794D01*
X0009484Y0007883D01*
X0009399Y0007975D01*
X0009317Y0008069D01*
X0009238Y0008166D01*
X0009163Y0008266D01*
X0009090Y0008367D01*
X0009021Y0008471D01*
X0008955Y0008578D01*
X0008893Y0008686D01*
X0008834Y0008796D01*
X0008778Y0008908D01*
X0008726Y0009022D01*
X0008678Y0009137D01*
X0008633Y0009253D01*
X0008593Y0009372D01*
X0008555Y0009491D01*
X0008522Y0009611D01*
X0008493Y0009733D01*
X0008467Y0009855D01*
X0008445Y0009978D01*
X0008428Y0010102D01*
X0008414Y0010226D01*
X0008404Y0010350D01*
X0008398Y0010475D01*
X0008396Y0010600D01*
D11*
X0003333Y0010600D02*
X0003336Y0010383D01*
X0003344Y0010165D01*
X0003357Y0009948D01*
X0003375Y0009731D01*
X0003399Y0009515D01*
X0003427Y0009300D01*
X0003461Y0009085D01*
X0003501Y0008871D01*
X0003545Y0008658D01*
X0003595Y0008446D01*
X0003649Y0008236D01*
X0003709Y0008026D01*
X0003773Y0007819D01*
X0003843Y0007613D01*
X0003918Y0007409D01*
X0003997Y0007206D01*
X0004082Y0007006D01*
X0004171Y0006807D01*
X0004265Y0006611D01*
X0004364Y0006417D01*
X0004467Y0006226D01*
X0004575Y0006037D01*
X0004688Y0005851D01*
X0004805Y0005668D01*
X0004926Y0005487D01*
X0005052Y0005310D01*
X0005182Y0005136D01*
X0005316Y0004964D01*
X0005454Y0004796D01*
X0005596Y0004632D01*
X0005743Y0004471D01*
X0005893Y0004313D01*
X0006046Y0004160D01*
X0006204Y0004010D01*
X0006365Y0003863D01*
X0006529Y0003721D01*
X0006697Y0003583D01*
X0006869Y0003449D01*
X0007043Y0003319D01*
X0007220Y0003193D01*
X0007401Y0003072D01*
X0007584Y0002955D01*
X0007770Y0002842D01*
X0007959Y0002734D01*
X0008150Y0002631D01*
X0008344Y0002532D01*
X0008540Y0002438D01*
X0008739Y0002349D01*
X0008939Y0002264D01*
X0009142Y0002185D01*
X0009346Y0002110D01*
X0009552Y0002040D01*
X0009759Y0001976D01*
X0009969Y0001916D01*
X0010179Y0001862D01*
X0010391Y0001812D01*
X0010604Y0001768D01*
X0010818Y0001728D01*
X0011033Y0001694D01*
X0011248Y0001666D01*
X0011464Y0001642D01*
X0011681Y0001624D01*
X0011898Y0001611D01*
X0012116Y0001603D01*
X0012333Y0001600D01*
X0192333Y0001600D02*
X0192550Y0001603D01*
X0192768Y0001611D01*
X0192985Y0001624D01*
X0193202Y0001642D01*
X0193418Y0001666D01*
X0193633Y0001694D01*
X0193848Y0001728D01*
X0194062Y0001768D01*
X0194275Y0001812D01*
X0194487Y0001862D01*
X0194697Y0001916D01*
X0194907Y0001976D01*
X0195114Y0002040D01*
X0195320Y0002110D01*
X0195524Y0002185D01*
X0195727Y0002264D01*
X0195927Y0002349D01*
X0196126Y0002438D01*
X0196322Y0002532D01*
X0196516Y0002631D01*
X0196707Y0002734D01*
X0196896Y0002842D01*
X0197082Y0002955D01*
X0197265Y0003072D01*
X0197446Y0003193D01*
X0197623Y0003319D01*
X0197797Y0003449D01*
X0197969Y0003583D01*
X0198137Y0003721D01*
X0198301Y0003863D01*
X0198462Y0004010D01*
X0198620Y0004160D01*
X0198773Y0004313D01*
X0198923Y0004471D01*
X0199070Y0004632D01*
X0199212Y0004796D01*
X0199350Y0004964D01*
X0199484Y0005136D01*
X0199614Y0005310D01*
X0199740Y0005487D01*
X0199861Y0005668D01*
X0199978Y0005851D01*
X0200091Y0006037D01*
X0200199Y0006226D01*
X0200302Y0006417D01*
X0200401Y0006611D01*
X0200495Y0006807D01*
X0200584Y0007006D01*
X0200669Y0007206D01*
X0200748Y0007409D01*
X0200823Y0007613D01*
X0200893Y0007819D01*
X0200957Y0008026D01*
X0201017Y0008236D01*
X0201071Y0008446D01*
X0201121Y0008658D01*
X0201165Y0008871D01*
X0201205Y0009085D01*
X0201239Y0009300D01*
X0201267Y0009515D01*
X0201291Y0009731D01*
X0201309Y0009948D01*
X0201322Y0010165D01*
X0201330Y0010383D01*
X0201333Y0010600D01*
X0201333Y0265600D02*
X0201330Y0265817D01*
X0201322Y0266035D01*
X0201309Y0266252D01*
X0201291Y0266469D01*
X0201267Y0266685D01*
X0201239Y0266900D01*
X0201205Y0267115D01*
X0201165Y0267329D01*
X0201121Y0267542D01*
X0201071Y0267754D01*
X0201017Y0267964D01*
X0200957Y0268174D01*
X0200893Y0268381D01*
X0200823Y0268587D01*
X0200748Y0268791D01*
X0200669Y0268994D01*
X0200584Y0269194D01*
X0200495Y0269393D01*
X0200401Y0269589D01*
X0200302Y0269783D01*
X0200199Y0269974D01*
X0200091Y0270163D01*
X0199978Y0270349D01*
X0199861Y0270532D01*
X0199740Y0270713D01*
X0199614Y0270890D01*
X0199484Y0271064D01*
X0199350Y0271236D01*
X0199212Y0271404D01*
X0199070Y0271568D01*
X0198923Y0271729D01*
X0198773Y0271887D01*
X0198620Y0272040D01*
X0198462Y0272190D01*
X0198301Y0272337D01*
X0198137Y0272479D01*
X0197969Y0272617D01*
X0197797Y0272751D01*
X0197623Y0272881D01*
X0197446Y0273007D01*
X0197265Y0273128D01*
X0197082Y0273245D01*
X0196896Y0273358D01*
X0196707Y0273466D01*
X0196516Y0273569D01*
X0196322Y0273668D01*
X0196126Y0273762D01*
X0195927Y0273851D01*
X0195727Y0273936D01*
X0195524Y0274015D01*
X0195320Y0274090D01*
X0195114Y0274160D01*
X0194907Y0274224D01*
X0194697Y0274284D01*
X0194487Y0274338D01*
X0194275Y0274388D01*
X0194062Y0274432D01*
X0193848Y0274472D01*
X0193633Y0274506D01*
X0193418Y0274534D01*
X0193202Y0274558D01*
X0192985Y0274576D01*
X0192768Y0274589D01*
X0192550Y0274597D01*
X0192333Y0274600D01*
X0012333Y0274600D02*
X0012116Y0274597D01*
X0011898Y0274589D01*
X0011681Y0274576D01*
X0011464Y0274558D01*
X0011248Y0274534D01*
X0011033Y0274506D01*
X0010818Y0274472D01*
X0010604Y0274432D01*
X0010391Y0274388D01*
X0010179Y0274338D01*
X0009969Y0274284D01*
X0009759Y0274224D01*
X0009552Y0274160D01*
X0009346Y0274090D01*
X0009142Y0274015D01*
X0008939Y0273936D01*
X0008739Y0273851D01*
X0008540Y0273762D01*
X0008344Y0273668D01*
X0008150Y0273569D01*
X0007959Y0273466D01*
X0007770Y0273358D01*
X0007584Y0273245D01*
X0007401Y0273128D01*
X0007220Y0273007D01*
X0007043Y0272881D01*
X0006869Y0272751D01*
X0006697Y0272617D01*
X0006529Y0272479D01*
X0006365Y0272337D01*
X0006204Y0272190D01*
X0006046Y0272040D01*
X0005893Y0271887D01*
X0005743Y0271729D01*
X0005596Y0271568D01*
X0005454Y0271404D01*
X0005316Y0271236D01*
X0005182Y0271064D01*
X0005052Y0270890D01*
X0004926Y0270713D01*
X0004805Y0270532D01*
X0004688Y0270349D01*
X0004575Y0270163D01*
X0004467Y0269974D01*
X0004364Y0269783D01*
X0004265Y0269589D01*
X0004171Y0269393D01*
X0004082Y0269194D01*
X0003997Y0268994D01*
X0003918Y0268791D01*
X0003843Y0268587D01*
X0003773Y0268381D01*
X0003709Y0268174D01*
X0003649Y0267964D01*
X0003595Y0267754D01*
X0003545Y0267542D01*
X0003501Y0267329D01*
X0003461Y0267115D01*
X0003427Y0266900D01*
X0003399Y0266685D01*
X0003375Y0266469D01*
X0003357Y0266252D01*
X0003344Y0266035D01*
X0003336Y0265817D01*
X0003333Y0265600D01*
D12*
X0017685Y0143354D02*
X0020687Y0143354D01*
X0019186Y0143354D02*
X0019186Y0138850D01*
X0022289Y0139601D02*
X0022289Y0143354D01*
X0022289Y0139601D02*
X0023039Y0138850D01*
X0024541Y0138850D01*
X0025291Y0139601D01*
X0025291Y0143354D01*
X0026893Y0142603D02*
X0026893Y0139601D01*
X0027643Y0138850D01*
X0029145Y0138850D01*
X0029895Y0139601D01*
X0029895Y0142603D01*
X0029145Y0143354D01*
X0027643Y0143354D01*
X0026893Y0142603D01*
X0031497Y0142603D02*
X0032247Y0143354D01*
X0033748Y0143354D01*
X0034499Y0142603D01*
X0034499Y0139601D01*
X0033748Y0138850D01*
X0032247Y0138850D01*
X0031497Y0139601D01*
X0036100Y0138850D02*
X0036100Y0141853D01*
X0037602Y0143354D01*
X0039103Y0141853D01*
X0039103Y0138850D01*
X0040704Y0139601D02*
X0040704Y0142603D01*
X0041455Y0143354D01*
X0043707Y0143354D01*
X0043707Y0138850D01*
X0041455Y0138850D01*
X0040704Y0139601D01*
X0039103Y0141102D02*
X0036100Y0141102D01*
X0036067Y0131354D02*
X0037568Y0131354D01*
X0036818Y0131354D02*
X0036818Y0126850D01*
X0037568Y0126850D02*
X0036067Y0126850D01*
X0034499Y0127601D02*
X0033748Y0126850D01*
X0032247Y0126850D01*
X0031497Y0127601D01*
X0031497Y0130603D01*
X0032247Y0131354D01*
X0033748Y0131354D01*
X0034499Y0130603D01*
X0034499Y0127601D01*
X0039170Y0127601D02*
X0039920Y0126850D01*
X0042172Y0126850D01*
X0042172Y0131354D01*
X0039920Y0131354D01*
X0039170Y0130603D01*
X0039170Y0127601D01*
X0043774Y0127601D02*
X0044524Y0126850D01*
X0046026Y0126850D01*
X0046776Y0127601D01*
X0046776Y0131354D01*
X0048378Y0129853D02*
X0048378Y0126850D01*
X0048378Y0129102D02*
X0051380Y0129102D01*
X0051380Y0129853D02*
X0049879Y0131354D01*
X0048378Y0129853D01*
X0051380Y0129853D02*
X0051380Y0126850D01*
X0047560Y0119354D02*
X0048311Y0118603D01*
X0048311Y0117853D01*
X0047560Y0117102D01*
X0046059Y0117102D01*
X0045308Y0116351D01*
X0045308Y0115601D01*
X0046059Y0114850D01*
X0047560Y0114850D01*
X0048311Y0115601D01*
X0047560Y0119354D02*
X0046059Y0119354D01*
X0045308Y0118603D01*
X0043707Y0119354D02*
X0041455Y0119354D01*
X0040704Y0118603D01*
X0040704Y0117102D01*
X0041455Y0116351D01*
X0043707Y0116351D01*
X0043707Y0114850D02*
X0043707Y0119354D01*
X0039103Y0119354D02*
X0039103Y0114850D01*
X0036100Y0114850D01*
X0034499Y0114850D02*
X0034499Y0117853D01*
X0032998Y0119354D01*
X0031497Y0117853D01*
X0031497Y0114850D01*
X0029895Y0114850D02*
X0029895Y0119354D01*
X0029145Y0117102D02*
X0026893Y0114850D01*
X0025291Y0114850D02*
X0022289Y0114850D01*
X0020687Y0114850D02*
X0020687Y0119354D01*
X0018435Y0119354D01*
X0017685Y0118603D01*
X0017685Y0117102D01*
X0018435Y0116351D01*
X0020687Y0116351D01*
X0019186Y0116351D02*
X0017685Y0114850D01*
X0022289Y0119354D02*
X0025291Y0119354D01*
X0025291Y0114850D01*
X0025291Y0117102D02*
X0023790Y0117102D01*
X0026893Y0119354D02*
X0029895Y0116351D01*
X0031497Y0117102D02*
X0034499Y0117102D01*
X0036100Y0119354D02*
X0039103Y0119354D01*
X0039103Y0117102D02*
X0037602Y0117102D01*
X0043774Y0127601D02*
X0043774Y0131354D01*
X0029895Y0130603D02*
X0029895Y0127601D01*
X0029145Y0126850D01*
X0027643Y0126850D01*
X0026893Y0127601D01*
X0026893Y0130603D01*
X0027643Y0131354D01*
X0029145Y0131354D01*
X0029895Y0130603D01*
X0025291Y0131354D02*
X0025291Y0127601D01*
X0024541Y0126850D01*
X0023039Y0126850D01*
X0022289Y0127601D01*
X0022289Y0131354D01*
X0020687Y0131354D02*
X0017685Y0131354D01*
X0019186Y0131354D02*
X0019186Y0126850D01*
X0165685Y0126603D02*
X0166435Y0127354D01*
X0167937Y0127354D01*
X0168687Y0126603D01*
X0168687Y0123601D01*
X0167937Y0122850D01*
X0166435Y0122850D01*
X0165685Y0123601D01*
X0170289Y0123601D02*
X0170289Y0126603D01*
X0171039Y0127354D01*
X0173291Y0127354D01*
X0173291Y0122850D01*
X0171039Y0122850D01*
X0170289Y0123601D01*
X0174893Y0124351D02*
X0176394Y0122850D01*
X0177895Y0124351D01*
X0177895Y0127354D01*
X0179497Y0126603D02*
X0179497Y0125853D01*
X0180247Y0125102D01*
X0179497Y0124351D01*
X0179497Y0123601D01*
X0180247Y0122850D01*
X0181748Y0122850D01*
X0182499Y0123601D01*
X0184050Y0123601D02*
X0184050Y0122850D01*
X0184801Y0122850D01*
X0184801Y0123601D01*
X0184050Y0123601D01*
X0186402Y0123601D02*
X0186402Y0124351D01*
X0187153Y0125102D01*
X0187904Y0125102D01*
X0187153Y0125102D02*
X0186402Y0125853D01*
X0186402Y0126603D01*
X0187153Y0127354D01*
X0188654Y0127354D01*
X0189405Y0126603D01*
X0189405Y0123601D02*
X0188654Y0122850D01*
X0187153Y0122850D01*
X0186402Y0123601D01*
X0182499Y0126603D02*
X0181748Y0127354D01*
X0180247Y0127354D01*
X0179497Y0126603D01*
X0180247Y0125102D02*
X0180998Y0125102D01*
X0178144Y0132850D02*
X0176643Y0132850D01*
X0175893Y0133601D01*
X0175893Y0135102D01*
X0177394Y0135102D01*
X0178895Y0136603D02*
X0178144Y0137354D01*
X0176643Y0137354D01*
X0175893Y0136603D01*
X0174291Y0137354D02*
X0171289Y0132850D01*
X0171289Y0137354D01*
X0169687Y0137354D02*
X0167435Y0137354D01*
X0166685Y0136603D01*
X0166685Y0133601D01*
X0167435Y0132850D01*
X0169687Y0132850D01*
X0169687Y0137354D01*
X0174291Y0137354D02*
X0174291Y0132850D01*
X0174893Y0127354D02*
X0174893Y0124351D01*
X0178144Y0132850D02*
X0178895Y0133601D01*
X0178895Y0136603D01*
X0179291Y0142850D02*
X0177039Y0142850D01*
X0176289Y0143601D01*
X0176289Y0146603D01*
X0177039Y0147354D01*
X0179291Y0147354D01*
X0179291Y0142850D01*
X0180893Y0144351D02*
X0180893Y0147354D01*
X0183895Y0147354D02*
X0183895Y0144351D01*
X0182394Y0142850D01*
X0180893Y0144351D01*
X0185497Y0143601D02*
X0185497Y0146603D01*
X0186247Y0147354D01*
X0187748Y0147354D01*
X0188499Y0146603D01*
X0188499Y0145853D01*
X0187748Y0145102D01*
X0185497Y0145102D01*
X0185497Y0143601D02*
X0186247Y0142850D01*
X0187748Y0142850D01*
X0188499Y0143601D01*
X0174687Y0143601D02*
X0173937Y0142850D01*
X0172435Y0142850D01*
X0171685Y0143601D01*
X0171685Y0146603D02*
X0172435Y0147354D01*
X0173937Y0147354D01*
X0174687Y0146603D01*
X0174687Y0143601D01*
X0176039Y0115354D02*
X0178291Y0115354D01*
X0178291Y0110850D01*
X0176039Y0110850D01*
X0175289Y0111601D01*
X0175289Y0114603D01*
X0176039Y0115354D01*
X0173687Y0114603D02*
X0173687Y0111601D01*
X0172937Y0110850D01*
X0171435Y0110850D01*
X0170685Y0111601D01*
X0170685Y0114603D02*
X0171435Y0115354D01*
X0172937Y0115354D01*
X0173687Y0114603D01*
X0179893Y0115354D02*
X0179893Y0112351D01*
X0181394Y0110850D01*
X0182895Y0112351D01*
X0182895Y0115354D01*
X0184497Y0115354D02*
X0187499Y0115354D01*
X0187499Y0113102D01*
X0185998Y0113853D01*
X0185247Y0113853D01*
X0184497Y0113102D01*
X0184497Y0111601D01*
X0185247Y0110850D01*
X0186748Y0110850D01*
X0187499Y0111601D01*
M02*
