%
M48
M72
T01C0.0120
T02C0.0320
T03C0.0400
T04C0.0520
T05C0.0787
%
T01
X8243Y9760
X11708Y8950
X15218Y14305
X13633Y14960
X17233Y15360
X17648Y14575
X18188Y13765
X18733Y13360
X18133Y12060
X13533Y23860
X14433Y24260
X10433Y24960
X4283Y16375
X4013Y15385
X1088Y15385
X3233Y23760
X3133Y24760
T02
X3633Y24160
X3633Y22960
X3633Y21760
X3633Y20560
X3633Y19360
X3633Y18160
X3633Y16957
X3633Y15760
X8033Y13260
X8033Y12260
X9933Y11360
X10933Y11360
X11933Y11360
X12933Y11360
X12933Y14360
X11933Y14360
X10933Y14360
X9933Y14360
X9633Y15760
X9633Y16957
X9633Y18160
X9633Y19360
X9633Y20560
X9633Y21760
X9633Y22960
X9633Y24160
X9633Y25360
X9633Y26560
X10783Y26560
X10783Y25360
X10783Y24160
X10783Y22960
X10783Y21760
X10783Y20560
X10783Y19360
X10788Y18160
X10788Y16957
X10833Y15760
X7633Y8760
X6633Y8760
X5233Y8760
X4233Y8760
X2533Y8760
X1533Y8760
X3933Y5660
X4933Y5660
X16833Y15760
X16788Y16957
X16788Y18160
X16783Y19360
X16783Y20560
X16783Y21760
X16783Y22960
X16783Y24160
X16783Y25360
X16783Y26560
X3633Y26560
X3633Y25360
T03
X2233Y24960
X2233Y23960
X2233Y22960
X2233Y21960
X2233Y20960
X2233Y19960
X2233Y18960
X2233Y17960
X2233Y16960
X2233Y15960
X1233Y15960
X1233Y16960
X1233Y17960
X1233Y18960
X1233Y19960
X1233Y20960
X1233Y21960
X1233Y22960
X1233Y23960
X1233Y24960
X9233Y8760
X10233Y8760
X12333Y8760
X13333Y8760
X15233Y8760
X16233Y8760
X18233Y8760
X19233Y8760
X19233Y5060
X18233Y5060
X17233Y5060
X15433Y5060
X14433Y5060
X13433Y5060
X11433Y5060
X10433Y5060
X8433Y5060
X7433Y5060
X6245Y2462
X4245Y2462
X1532Y3480
X1532Y4480
X1532Y5480
X8133Y1460
X9133Y1460
X10833Y1460
X11833Y1460
X12833Y1460
X13833Y1460
X14833Y1460
X15833Y1460
X16833Y1460
X17833Y1460
X18233Y15960
X18233Y16960
X18233Y17960
X18233Y18960
X18233Y19960
X18233Y20960
X18233Y21960
X18233Y22960
X18233Y23960
X18233Y24960
X19233Y24960
X19233Y23960
X19233Y22960
X19233Y21960
X19233Y20960
X19233Y19960
X19233Y18960
X19233Y17960
X19233Y16960
X19233Y15960
T04
X19433Y14560
X19433Y13460
X19433Y12360
X19433Y11260
X1033Y11660
X1033Y12860
X1033Y14060
T05
X1233Y1060
X19233Y1060
X19233Y26560
X1233Y26560
M30
